<svg xmlns="http://www.w3.org/2000/svg" viewBox="0 0 48 48" width="48px" height="48px"><path fill="#616161" d="M41.219 35.884H43.719V49.054H41.219z" transform="rotate(-45.001 42.469 42.47)"/><path fill="#ffa000" d="M40,12H22l-4-4H8c-2.2,0-4,1.8-4,4v8h40v-4C44,13.8,42.2,12,40,12z"/><path fill="#ffca28" d="M40,12H8c-2.2,0-4,1.8-4,4v20c0,2.2,1.8,4,4,4h32c2.2,0,4-1.8,4-4V16C44,13.8,42.2,12,40,12z"/><path fill="#616161" d="M35 25A10 10 0 1 0 35 45A10 10 0 1 0 35 25Z"/><path fill="#64b5f6" d="M35 27A8 8 0 1 0 35 43A8 8 0 1 0 35 27Z"/><path fill="#37474f" d="M43.906 42.372H46.406V47.94H43.906z" transform="rotate(-45.001 45.156 45.157)"/><path fill="#bbdefb" d="M38.979,33c-0.303,0-0.603-0.137-0.799-0.397C37.41,31.584,36.251,31,35,31s-2.41,0.584-3.18,1.603 c-0.333,0.441-0.962,0.528-1.4,0.195c-0.441-0.333-0.528-0.96-0.195-1.4C31.376,29.874,33.116,29,35,29s3.624,0.874,4.775,2.397 c0.333,0.44,0.246,1.067-0.195,1.4C39.4,32.935,39.188,33,38.979,33z"/></svg>