<svg xmlns="http://www.w3.org/2000/svg" viewBox="0 0 48 48" width="48px" height="48px"><path fill="#7986cb" d="M24,8C13.5,8,5,16.5,5,27c0,4.6,1.6,8.7,4.3,12l1.5-3h26.5l1.5,3c2.7-3.3,4.3-7.4,4.3-12 C43,16.5,34.5,8,24,8z"/><path fill="#eceff1" d="M40,27c0-8.8-7.2-16-16-16S8,18.2,8,27c0,3.3,1,6.4,2.8,9l-1.5,3h29.5l-1.5-3C39,33.4,40,30.3,40,27 z"/><path fill="#455a64" d="M8 26c0 .3 0 .7 0 1s0 .7 0 1h4c0-.3-.1-.7-.1-1s0-.7.1-1H8zM14.2 33.9c-.4-.5-.7-1.1-1-1.7l-3.4 2.1c.3.6.6 1.2 1 1.7L14.2 33.9zM16.9 17.3c.5-.4 1.1-.7 1.7-1l-2-3.5c-.6.3-1.2.7-1.7 1L16.9 17.3zM13.1 21.9c.3-.6.6-1.2 1-1.7l-3.4-2.1c-.4.6-.7 1.2-1 1.8L13.1 21.9zM25 15.1v-4c-.3 0-.7 0-1 0s-.7 0-1 0v4.1c.3 0 .7-.1 1-.1S24.7 15 25 15.1zM33.8 34l3.5 2c.4-.6.7-1.2 1-1.8l-3.5-2C34.5 32.9 34.1 33.5 33.8 34zM40 28c0-.3 0-.7 0-1s0-.7 0-1h-4c0 .3.1.7.1 1s0 .7-.1 1H40zM32.8 13.6c-.6-.4-1.2-.7-1.8-1l-2 3.5c.6.3 1.2.6 1.7 1L32.8 13.6z"/><path fill="#90a4ae" d="M20,32h8v2h-8V32z"/><path fill="#ff1744" d="M23.1 22.5H37V24.5H23.1z" transform="rotate(-30.243 30 23.499)"/><path fill="#ff1744" d="M23.9,23.9c1.6,0,2.9,1.3,2.9,2.9c0,1.6-1.3,2.9-2.9,2.9c-1.6,0-2.9-1.3-2.9-2.9 C20.9,25.2,22.3,23.9,23.9,23.9z"/></svg>